<svg id="Capa_1" enable-background="new 0 0 512 512" height="512" viewBox="0 0 512 512" width="512" xmlns="http://www.w3.org/2000/svg"><g><path d="m203.376 469.491h-177.873c-10.692 0-19.36-8.668-19.36-19.36v-329.843c0-10.692 8.668-19.36 19.36-19.36h177.873c10.692 0 19.36 8.668 19.36 19.36v329.843c0 10.692-8.668 19.36-19.36 19.36z" fill="#eaf6ff"/><path d="m222.74 120.283v329.85c0 10.688-8.667 19.355-19.365 19.355h-39.615c10.688 0 19.355-8.667 19.355-19.355l.003-31.05-19.358-27.689 19.358-17.904-.003-253.207c0-10.688-8.667-19.355-19.355-19.355h39.615c10.697 0 19.365 8.667 19.365 19.355z" fill="#d8ecfe"/><path d="m171.892 362.265h-114.904c-6.2 0-11.225 5.026-11.225 11.225v45.593c0 6.2 5.026 11.225 11.225 11.225h114.904c6.2 0 11.225-5.026 11.225-11.225v-45.593c0-6.199-5.026-11.225-11.225-11.225z" fill="#fee97d"/><g><path d="m125.854 163.568-58.045-.002c-10.482 0-18.98-8.497-18.98-18.98v-93.262c0-10.482 8.497-18.98 18.98-18.98l58.045.002c10.482 0 37.906 8.497 37.906 18.98v93.263c-.001 10.482-27.424 18.979-37.906 18.979z" fill="#8ac9fe"/></g><path d="m486.497 469.491h-177.873c-10.692 0-19.36-8.668-19.36-19.36v-329.843c0-10.692 8.668-19.36 19.36-19.36h177.873c10.692 0 19.36 8.668 19.36 19.36v329.843c-.001 10.692-8.668 19.36-19.36 19.36z" fill="#eaf6ff"/><path d="m505.856 120.283v329.85c0 10.688-8.667 19.355-19.355 19.355h-39.625c10.698 0 19.365-8.667 19.365-19.355l-.004-139.255-6.193-43.356 6.193-39.131.004-108.108c0-10.688-8.667-19.355-19.365-19.355h39.625c10.688 0 19.355 8.667 19.355 19.355z" fill="#d8ecfe"/><g fill="#fee97d"><path d="m368.911 217.166h-28.803c-6.2 0-11.225 5.026-11.225 11.225v82.488c0 6.2 5.026 11.225 11.225 11.225h28.803c6.2 0 11.225-5.026 11.225-11.225v-82.488c.001-6.199-5.025-11.225-11.225-11.225z"/><path d="m455.012 217.166h-27.414c-6.2 0-11.225 5.026-11.225 11.225v82.488c0 6.2 5.026 11.225 11.225 11.225h27.414c6.2 0 11.225-5.026 11.225-11.225v-82.488c.001-6.199-5.025-11.225-11.225-11.225z"/></g><g><path d="m408.98 163.568-58.052-.002c-10.482 0-18.98-8.497-18.98-18.98v-93.262c0-10.482 8.497-18.98 18.98-18.98l58.052.002c10.482 0 40.118 8.497 40.118 18.98v93.263c0 10.482-29.635 18.979-40.118 18.979z" fill="#d9b1ee"/></g><g><path d="m180.048 51.319v93.266c0 10.487-8.496 18.983-18.973 18.983h-35.221c10.487 0 18.983-8.496 18.983-18.983v-93.266c0-10.477-8.496-18.973-18.983-18.973h35.221c10.477 0 18.973 8.496 18.973 18.973z" fill="#60b7ff"/></g><g><path d="m463.175 51.319v93.266c0 10.487-8.496 18.983-18.983 18.983h-35.212c10.477 0 18.983-8.496 19.546-18.983v-93.266c-.563-10.477-9.069-18.973-19.546-18.973h35.211c10.487 0 18.984 8.496 18.984 18.973z" fill="#c997e8"/></g><g><g><path d="m139.716 235.661h-50.553c-4.165 0-7.541-3.376-7.541-7.541s3.376-7.541 7.541-7.541h50.554c4.165 0 7.541 3.376 7.541 7.541s-3.377 7.541-7.542 7.541z" fill="#7ca1b1"/></g><g><path d="m183.114 269.684h-137.355c-4.163 0-7.541-3.378-7.541-7.541s3.378-7.541 7.541-7.541h137.356c4.162 0 4.162 15.082-.001 15.082z" fill="#7ca1b1"/></g><g><path d="m183.114 303.709h-137.355c-4.163 0-7.541-3.378-7.541-7.541 0-4.173 3.378-7.541 7.541-7.541h137.356c4.162 0 4.162 15.082-.001 15.082z" fill="#7ca1b1"/></g><g><g><path d="m466.241 369.808h-137.355c-4.163 0-7.541-3.378-7.541-7.541 0-4.162 3.378-7.541 7.541-7.541h137.356c4.162 0 4.162 15.082-.001 15.082z" fill="#7ca1b1"/></g><g><path d="m466.241 403.833h-137.355c-4.163 0-7.541-3.378-7.541-7.541 0-4.173 3.378-7.541 7.541-7.541h137.356c4.162 0 4.162 15.082-.001 15.082z" fill="#7ca1b1"/></g><g><path d="m421.668 437.849h-47.063c-4.165 0-7.541-3.376-7.541-7.541s3.376-7.541 7.541-7.541h47.063c4.165 0 7.541 3.376 7.541 7.541s-3.376 7.541-7.541 7.541z" fill="#7ca1b1"/></g></g></g><g fill="#678d98"><path d="m473.782 396.292c0 4.163-3.378 7.541-7.541 7.541v-15.082c4.163 0 7.541 3.368 7.541 7.541z"/><path d="m466.241 369.808v-15.082c4.163 0 7.541 3.378 7.541 7.541 0 4.162-3.378 7.541-7.541 7.541z"/><path d="m190.655 296.168c0 4.163-3.378 7.541-7.541 7.541v-15.082c4.163 0 7.541 3.368 7.541 7.541z"/><path d="m183.114 269.684v-15.082c4.163 0 7.541 3.378 7.541 7.541s-3.378 7.541-7.541 7.541z"/></g><g fill="#eaf6ff"><path d="m149.394 134.343-4.557-19.047-21.607-57.251c-.02-.07-.05-.141-.08-.211-1.438-3.489-4.796-5.751-8.577-5.751h-.01c-3.781.01-7.149 2.272-8.577 5.771-.03.05-.05.111-.07.171l-28.786 75.57c-1.478 3.891.473 8.255 4.364 9.733 3.891 1.488 8.255-.473 9.733-4.364l5.319-13.966h35.834l5.269 13.946c1.136 3.016 4.012 4.887 7.058 4.887.04 0 .091 0 .131-.01-.132.01 4.556-9.478 4.556-9.478zm-47.108-24.426 12.257-32.175 12.146 32.175z"/><path d="m416.471 92.492c3.217-4.233 5.138-9.512 5.138-15.223 0-13.885-11.291-25.187-25.177-25.187h-22.271c-4.163 0-7.541 3.378-7.541 7.541v76.656c0 2.011.804 3.931 2.222 5.349 1.418 1.408 3.328 2.192 5.319 2.192h.04s20.471-.09 26.122-.09c15.534 0 28.173-12.639 28.173-28.173 0-9.531-4.766-17.967-12.025-23.065zm-34.769-25.327h14.73c5.57 0 10.095 4.535 10.095 10.105 0 5.56-4.525 10.095-10.095 10.095-1.629 0-4.685.01-8.024.02h-6.706zm18.621 61.484c-3.398 0-12.156.04-18.621.06v-26.222c2.122 0 4.464-.01 6.676-.02h11.945c7.219 0 13.091 5.872 13.091 13.091s-5.871 13.091-13.091 13.091z"/></g><g><path d="m147.36 143.338c-.835.312-1.679.473-2.524.483v-28.525l6.918 18.329c1.468 3.892-.493 8.245-4.394 9.713z" fill="#d8ecfe"/></g><g><g><path d="m256 31.169c-4.165 0-7.541-3.376-7.541-7.541v-16.087c0-4.165 3.376-7.541 7.541-7.541s7.541 3.376 7.541 7.541v16.087c0 4.165-3.376 7.541-7.541 7.541z" fill="#678d98"/></g><g><path d="m256 457.785c-4.165 0-7.541-3.376-7.541-7.541v-32.975c0-4.165 3.376-7.541 7.541-7.541s7.541 3.376 7.541 7.541v32.975c0 4.165-3.376 7.541-7.541 7.541zm0-71.103c-4.165 0-7.541-3.376-7.541-7.541v-32.975c0-4.165 3.376-7.541 7.541-7.541s7.541 3.376 7.541 7.541v32.975c0 4.165-3.376 7.541-7.541 7.541zm0-71.102c-4.165 0-7.541-3.376-7.541-7.541v-32.976c0-4.165 3.376-7.541 7.541-7.541s7.541 3.376 7.541 7.541v32.976c0 4.165-3.376 7.541-7.541 7.541zm0-71.103c-4.165 0-7.541-3.376-7.541-7.541v-32.975c0-4.165 3.376-7.541 7.541-7.541s7.541 3.376 7.541 7.541v32.975c0 4.166-3.376 7.541-7.541 7.541zm0-71.102c-4.165 0-7.541-3.376-7.541-7.541v-32.975c0-4.165 3.376-7.541 7.541-7.541s7.541 3.376 7.541 7.541v32.975c0 4.165-3.376 7.541-7.541 7.541zm0-71.103c-4.165 0-7.541-3.376-7.541-7.541v-32.975c0-4.165 3.376-7.541 7.541-7.541s7.541 3.376 7.541 7.541v32.975c0 4.165-3.376 7.541-7.541 7.541z" fill="#678d98"/></g><g><path d="m256 512c-4.165 0-7.541-3.376-7.541-7.541v-16.087c0-4.165 3.376-7.541 7.541-7.541s7.541 3.376 7.541 7.541v16.087c0 4.165-3.376 7.541-7.541 7.541z" fill="#678d98"/></g></g></g></svg>