<svg id="Capa_1" enable-background="new 0 0 497 497" height="512" viewBox="0 0 497 497" width="512" xmlns="http://www.w3.org/2000/svg"><g><g fill="#99e6fc"><path d="m207.078 288.773h-83.188c-4.143 0-7.5-3.358-7.5-7.5s3.357-7.5 7.5-7.5h83.187c4.143 0 7.5 3.358 7.5 7.5s-3.357 7.5-7.499 7.5z"/><path d="m303.528 322.171h-18.314c-4.143 0-7.5-3.358-7.5-7.5s3.357-7.5 7.5-7.5h18.314c4.143 0 7.5 3.358 7.5 7.5s-3.357 7.5-7.5 7.5z"/><path d="m250.068 322.171h-103.82c-4.143 0-7.5-3.358-7.5-7.5s3.357-7.5 7.5-7.5h103.82c4.143 0 7.5 3.358 7.5 7.5s-3.357 7.5-7.5 7.5z"/></g><path d="m472.7 312.679h-10.92c-3.58 0-6.71 2.38-7.68 5.83-27.33 97.31-116.7 168.66-222.74 168.66-127.78 0-231.36-103.58-231.36-231.36 0-127.85 104.56-231.92 232.4-231.36 30.28.14 59.19 6.09 85.66 16.8 8.35 3.38 10.51 14.21 4.15 20.58l-26.83 26.82c-5.34 5.34-13.12 7.41-20.41 5.45-13.9-3.74-28.52-5.73-43.61-5.73-4.83 0-9.62.2-14.35.61-86.16 7.31-153.72 79.84-153.09 168.04.61 87.46 67.35 158.48 153.16 165.64 3.93.33 7.9.52 11.9.58 69.26.96 129.01-40.13 155.4-99.36 2.34-5.27-1.54-11.2-7.3-11.2h-10.66c-19.92.58-31.8-24.42-18.98-39.55l51.68-64.4c10.49-13.07 30.38-13.07 40.87 0l51.68 64.4c12.82 15.13.95 40.13-18.97 39.55z" fill="#bbec6c"/><g fill="#a2e62e"><path d="m217.08 422.659c-5.46.45-11 .66-16.61.58-92.02-1.28-166.22-77.61-165.04-169.63 1.18-91.47 75.68-165.24 167.43-165.24 4.77 0 9.48.22 14.15.61-86.16 7.31-153.72 79.84-153.09 168.04.61 87.46 67.35 158.48 153.16 165.64z"/><path d="m289.558 41.253c8.347 3.378 10.515 14.205 4.147 20.572l-26.822 26.822c-1.066 1.066-2.233 1.996-3.471 2.796 3.901.756 7.757 1.635 11.556 2.658 7.293 1.963 15.075-.114 20.415-5.454l26.822-26.822c6.368-6.367 4.2-17.195-4.147-20.572-26.473-10.712-55.374-16.666-85.657-16.8-5.119-.023-10.195.141-15.234.449 25.463 1.554 49.812 7.214 72.391 16.351z"/><path d="m491.669 273.128-51.674-64.394c-9.618-11.986-27.138-12.973-38.071-2.98 5.897 1.095 11.485 4.205 15.614 9.351l45.631 58.023c12.821 15.133.953 40.128-18.972 39.55h-10.922c-3.572 0-6.703 2.379-7.668 5.818-26.087 92.897-108.714 162.131-208.409 168.228 4.686.283 9.405.444 14.162.444 106.042 0 195.412-71.35 222.744-168.66.967-3.444 4.096-5.829 7.673-5.829h10.921c19.924.576 31.792-24.418 18.971-39.551z"/></g><g><path d="m439.5 93.839-164.86 164.86-21.5-7-9.8-3.2-10.09-31.19 164.85-164.86 34.82 9.44 1.71 8.32z" fill="#0593fc"/><path d="m439.5 93.839-164.86 164.86-21.5-7 181.49-181.49z" fill="#0181fa"/><path d="m473.543 59.8-34.044 34.044-41.394-41.394 34.044-34.044c11.429-11.429 29.966-11.436 41.402 0 5.71 5.71 8.569 13.21 8.569 20.693 0 7.499-2.859 14.982-8.577 20.701z" fill="#f07281"/><path d="m473.55 18.405c-9.471-9.471-23.81-11.085-34.951-4.871 2.311 1.289 4.487 2.907 6.451 4.871 5.71 5.71 8.57 13.21 8.57 20.693 0 7.499-2.859 14.983-8.577 20.701l-19.793 19.794 14.25 14.25 34.042-34.043c5.718-5.718 8.577-13.202 8.577-20.701.001-7.484-2.858-14.983-8.569-20.694z" fill="#eb5569"/><path d="m274.64 258.702-11.819 11.819c-3.953 3.953-8.905 6.765-14.334 8.132l-39.4 9.971c-3.479.88-6.636-2.276-5.757-5.756l9.965-39.407c1.367-5.429 4.179-10.382 8.132-14.334l11.819-11.819z" fill="#fff3be"/><path d="m234.321 270.521c-3.953 3.953-8.905 6.765-14.334 8.132l-16.656 4.215c-.88 3.479 2.277 6.636 5.757 5.756l39.4-9.971c5.429-1.367 10.382-4.179 14.334-8.132l11.819-11.819-14.25-14.25z" fill="#ffec9c"/><g><path d="m387.24 67.947h14.991v58.534h-14.991z" fill="#0181fa" transform="matrix(.707 -.707 .707 .707 46.874 307.593)"/></g></g></g></svg>